<svg width="82" height="93" viewBox="0 0 82 93" fill="none" xmlns="http://www.w3.org/2000/svg">
<g filter="url(#filter0_ddddd_2130_500)">
<path d="M71.5813 29.1313C70.4031 27.9 69.1844 26.6313 68.725 25.5156C68.3 24.4937 68.275 22.8 68.25 21.1594C68.2031 18.1094 68.1531 14.6531 65.75 12.25C63.3469 9.84688 59.8906 9.79687 56.8406 9.75C55.2 9.725 53.5062 9.7 52.4844 9.275C51.3719 8.81562 50.1 7.59687 48.8687 6.41875C46.7125 4.34687 44.2625 2 41 2C37.7375 2 35.2906 4.34687 33.1313 6.41875C31.9 7.59687 30.6313 8.81562 29.5156 9.275C28.5 9.7 26.8 9.725 25.1594 9.75C22.1094 9.79687 18.6531 9.84688 16.25 12.25C13.8469 14.6531 13.8125 18.1094 13.75 21.1594C13.725 22.8 13.7 24.4937 13.275 25.5156C12.8156 26.6281 11.5969 27.9 10.4187 29.1313C8.34687 31.2875 6 33.7375 6 37C6 40.2625 8.34687 42.7094 10.4187 44.8687C11.5969 46.1 12.8156 47.3688 13.275 48.4844C13.7 49.5062 13.725 51.2 13.75 52.8406C13.7969 55.8906 13.8469 59.3469 16.25 61.75C18.6531 64.1531 22.1094 64.2031 25.1594 64.25C26.8 64.275 28.4937 64.3 29.5156 64.725C30.6281 65.1844 31.9 66.4031 33.1313 67.5813C35.2875 69.6531 37.7375 72 41 72C44.2625 72 46.7094 69.6531 48.8687 67.5813C50.1 66.4031 51.3688 65.1844 52.4844 64.725C53.5062 64.3 55.2 64.275 56.8406 64.25C59.8906 64.2031 63.3469 64.1531 65.75 61.75C68.1531 59.3469 68.2031 55.8906 68.25 52.8406C68.275 51.2 68.3 49.5062 68.725 48.4844C69.1844 47.3719 70.4031 46.1 71.5813 44.8687C73.6531 42.7125 76 40.2625 76 37C76 33.7375 73.6531 31.2906 71.5813 29.1313ZM55.2688 31.2688L37.7688 48.7687C37.5366 49.0012 37.2608 49.1856 36.9574 49.3114C36.6539 49.4372 36.3285 49.502 36 49.502C35.6715 49.502 35.3461 49.4372 35.0427 49.3114C34.7392 49.1856 34.4634 49.0012 34.2313 48.7687L26.7312 41.2688C26.2621 40.7997 25.9986 40.1634 25.9986 39.5C25.9986 38.8366 26.2621 38.2004 26.7312 37.7312C27.2003 37.2621 27.8366 36.9986 28.5 36.9986C29.1634 36.9986 29.7997 37.2621 30.2688 37.7312L36 43.4656L51.7313 27.7313C51.9635 27.499 52.2393 27.3147 52.5428 27.189C52.8462 27.0633 53.1715 26.9986 53.5 26.9986C53.8285 26.9986 54.1538 27.0633 54.4572 27.189C54.7607 27.3147 55.0365 27.499 55.2688 27.7313C55.501 27.9635 55.6853 28.2393 55.811 28.5428C55.9367 28.8462 56.0014 29.1715 56.0014 29.5C56.0014 29.8285 55.9367 30.1538 55.811 30.4572C55.6853 30.7607 55.501 31.0365 55.2688 31.2688Z" fill="#45B442"/>
<path d="M47.6589 7.68316L47.6562 7.68063C45.3822 5.49552 43.4382 3.75 41 3.75C38.5618 3.75 36.6218 5.49487 34.3428 7.68151L34.3411 7.68317L34.2931 7.72911C33.7012 8.29556 33.0488 8.91984 32.4012 9.46016C31.7518 10.002 30.9932 10.5582 30.1865 10.8913C29.4173 11.2122 28.5149 11.3406 27.7159 11.4066C26.9031 11.4737 26.0225 11.4871 25.227 11.4992L25.1863 11.4998C21.9781 11.5491 19.3055 11.6694 17.4874 13.4874C15.6705 15.3044 15.5658 17.9672 15.4997 21.1907C15.4997 21.1922 15.4997 21.1937 15.4996 21.1952L15.4992 21.2261C15.4871 22.0218 15.4737 22.9013 15.4066 23.7137C15.3404 24.5142 15.2117 25.4151 14.8917 26.1856C14.5589 26.9906 14.0025 27.7495 13.4605 28.3996C12.9154 29.0533 12.2852 29.712 11.7141 30.3088L11.6832 30.3411L11.6806 30.3438C9.49552 32.6178 7.75 34.5618 7.75 37C7.75 39.4382 9.49487 41.3782 11.6815 43.6572L11.6832 43.6589L11.7291 43.7069C12.2956 44.2989 12.9198 44.9512 13.4602 45.5988C14.0023 46.2487 14.559 47.0079 14.892 47.8152C15.2118 48.5855 15.3404 49.4861 15.4066 50.2863C15.4737 51.0987 15.4871 51.9782 15.4992 52.7739L15.4998 52.8137C15.5491 56.0219 15.6694 58.6945 17.4874 60.5126C19.3054 62.3306 21.978 62.4509 25.186 62.5002C25.1861 62.5002 25.1862 62.5002 25.1863 62.5002L25.226 62.5008C26.0217 62.5129 26.9013 62.5263 27.7137 62.5934C28.5142 62.6596 29.4151 62.7883 30.1856 63.1083C30.9906 63.4411 31.7495 63.9975 32.3996 64.5395C33.0534 65.0846 33.712 65.7148 34.3088 66.286L34.3411 66.3168L34.3438 66.3194C36.6178 68.5045 38.5618 70.25 41 70.25C43.4382 70.25 45.3782 68.5051 47.6572 66.3185L47.6589 66.3168L47.7069 66.2709C48.2988 65.7045 48.9512 65.0802 49.5988 64.5398C50.2491 63.9974 51.0088 63.4404 51.8166 63.1074C52.5865 62.7881 53.4866 62.6595 54.2863 62.5934C55.0987 62.5263 55.9783 62.5129 56.774 62.5008L56.8137 62.5002C56.8138 62.5002 56.8139 62.5002 56.814 62.5002C60.022 62.4509 62.6946 62.3306 64.5126 60.5126C66.3306 58.6946 66.4509 56.022 66.5002 52.814C66.5002 52.8139 66.5002 52.8138 66.5002 52.8137L66.5008 52.774C66.5129 51.9783 66.5263 51.0987 66.5934 50.2863C66.6596 49.4858 66.7883 48.5849 67.1083 47.8144C67.1086 47.8137 67.1089 47.813 67.1092 47.8124L68.725 48.4844L47.6589 7.68316ZM47.6589 7.68316L47.6911 7.71401C48.288 8.28515 48.9466 8.9154 49.6004 9.46051C50.2505 10.0025 51.0094 10.5589 51.8144 10.8917C52.5849 11.2117 53.4858 11.3404 54.2863 11.4066C55.0987 11.4737 55.9782 11.4871 56.7739 11.4992L56.8137 11.4998C60.0219 11.5491 62.6945 11.6694 64.5126 13.4874C66.3306 15.3054 66.4509 17.978 66.5002 21.186M47.6589 7.68316L66.5002 21.186M66.5002 21.186C66.5002 21.1861 66.5002 21.1862 66.5002 21.1863L66.5002 21.186ZM70.3168 30.3411L70.3185 30.3428L68.725 25.5156L67.1068 26.1819C67.1071 26.1825 67.1073 26.1831 67.1076 26.1837C67.4405 26.9914 67.9974 27.751 68.5398 28.4012C69.0802 29.0488 69.7045 29.7012 70.271 30.2931L70.3168 30.3411ZM26.7312 37.7312L25.4938 36.4938C24.6965 37.2911 24.2486 38.3725 24.2486 39.5C24.2486 40.6275 24.6965 41.7089 25.4938 42.5062L32.9931 50.0055C32.9934 50.0057 32.9936 50.006 32.9938 50.0062C33.3884 50.401 33.8569 50.7143 34.3725 50.928C34.8885 51.1419 35.4415 51.252 36 51.252C36.5585 51.252 37.1115 51.1419 37.6275 50.928C38.1434 50.7141 38.6122 50.4006 39.0069 50.0055L56.5062 32.5062L55.2688 31.2688L56.5062 32.5062C56.901 32.1114 57.2141 31.6427 57.4278 31.1269C57.6414 30.6112 57.7514 30.0583 57.7514 29.5C57.7514 28.9417 57.6414 28.3888 57.4278 27.8731C57.2141 27.3573 56.901 26.8886 56.5062 26.4938L55.2688 27.7313L56.5062 26.4938C56.1114 26.099 55.6427 25.7859 55.1269 25.5722C54.6111 25.3586 54.0583 25.2486 53.5 25.2486C52.9417 25.2486 52.3889 25.3586 51.8731 25.5722C51.3573 25.7859 50.8886 26.099 50.4938 26.4938L50.4937 26.4939L36.0002 40.9903L31.5065 36.4941L31.5062 36.4938C30.7089 35.6965 29.6275 35.2486 28.5 35.2486C27.3725 35.2486 26.2911 35.6965 25.4938 36.4938L26.7312 37.7312Z" stroke="white" stroke-width="3.5"/>
</g>
<defs>
<filter id="filter0_ddddd_2130_500" x="0.75" y="0.25" width="80.5" height="98" filterUnits="userSpaceOnUse" color-interpolation-filters="sRGB">
<feFlood flood-opacity="0" result="BackgroundImageFix"/>
<feColorMatrix in="SourceAlpha" type="matrix" values="0 0 0 0 0 0 0 0 0 0 0 0 0 0 0 0 0 0 127 0" result="hardAlpha"/>
<feOffset/>
<feGaussianBlur stdDeviation="0.875"/>
<feColorMatrix type="matrix" values="0 0 0 0 0 0 0 0 0 0 0 0 0 0 0 0 0 0 0.29 0"/>
<feBlend mode="normal" in2="BackgroundImageFix" result="effect1_dropShadow_2130_500"/>
<feColorMatrix in="SourceAlpha" type="matrix" values="0 0 0 0 0 0 0 0 0 0 0 0 0 0 0 0 0 0 127 0" result="hardAlpha"/>
<feOffset dy="3.5"/>
<feGaussianBlur stdDeviation="1.75"/>
<feColorMatrix type="matrix" values="0 0 0 0 0 0 0 0 0 0 0 0 0 0 0 0 0 0 0.26 0"/>
<feBlend mode="normal" in2="effect1_dropShadow_2130_500" result="effect2_dropShadow_2130_500"/>
<feColorMatrix in="SourceAlpha" type="matrix" values="0 0 0 0 0 0 0 0 0 0 0 0 0 0 0 0 0 0 127 0" result="hardAlpha"/>
<feOffset dy="7"/>
<feGaussianBlur stdDeviation="2.625"/>
<feColorMatrix type="matrix" values="0 0 0 0 0 0 0 0 0 0 0 0 0 0 0 0 0 0 0.15 0"/>
<feBlend mode="normal" in2="effect2_dropShadow_2130_500" result="effect3_dropShadow_2130_500"/>
<feColorMatrix in="SourceAlpha" type="matrix" values="0 0 0 0 0 0 0 0 0 0 0 0 0 0 0 0 0 0 127 0" result="hardAlpha"/>
<feOffset dy="14"/>
<feGaussianBlur stdDeviation="2.625"/>
<feColorMatrix type="matrix" values="0 0 0 0 0 0 0 0 0 0 0 0 0 0 0 0 0 0 0.04 0"/>
<feBlend mode="normal" in2="effect3_dropShadow_2130_500" result="effect4_dropShadow_2130_500"/>
<feColorMatrix in="SourceAlpha" type="matrix" values="0 0 0 0 0 0 0 0 0 0 0 0 0 0 0 0 0 0 127 0" result="hardAlpha"/>
<feOffset dy="21"/>
<feGaussianBlur stdDeviation="2.625"/>
<feColorMatrix type="matrix" values="0 0 0 0 0 0 0 0 0 0 0 0 0 0 0 0 0 0 0.01 0"/>
<feBlend mode="normal" in2="effect4_dropShadow_2130_500" result="effect5_dropShadow_2130_500"/>
<feBlend mode="normal" in="SourceGraphic" in2="effect5_dropShadow_2130_500" result="shape"/>
</filter>
</defs>
</svg>
